<svg width="625" height="659" viewBox="0 0 625 659" fill="none" xmlns="http://www.w3.org/2000/svg">
<g clip-path="url(#clip0)">
<path opacity="0.7" d="M37.9691 205.266C37.9691 205.266 -2.91838 312.377 54.5411 420.232C112.001 528.086 230.351 585.064 325.076 633.784C419.8 682.505 518.162 658.777 564.901 578.979C611.64 499.181 547.537 442.219 547.449 328.429C547.361 214.638 564.241 184.513 503.452 88.3813C442.664 -7.75078 293.648 -29.0391 180.958 42.2641C68.268 113.567 37.9691 205.266 37.9691 205.266Z" fill="white"/>
<path d="M31.7508 163.716C70.9224 86.5962 143.663 28.2505 234.223 20.0387C296.508 14.5298 358.583 32.7472 408.346 71.1395C433.073 90.479 455.041 115.1 469.634 143.201C486.382 175.483 491.265 212.704 508.497 244.838C529.924 284.781 570.166 301.264 597.194 335.778C619.442 364.207 627.083 402.306 624.531 438.515C619.867 504.612 581.693 567.361 525.539 601.235C478.066 629.872 420.841 637.771 365.684 635.168C280.625 631.166 195.946 602.707 128.954 549.405C61.9618 496.102 13.8149 417.301 2.40514 331.717C-5.35291 273.564 5.92486 214.549 31.7508 163.716Z" fill="#F99D1B"/>
<path opacity="0.7" d="M31.7508 163.716C70.9224 86.5962 143.663 28.2505 234.223 20.0387C296.508 14.5298 358.583 32.7472 408.346 71.1395C433.073 90.479 455.041 115.1 469.634 143.201C486.382 175.483 491.265 212.704 508.497 244.838C529.924 284.781 570.166 301.264 597.194 335.778C619.442 364.207 627.083 402.306 624.531 438.515C619.867 504.612 581.693 567.361 525.539 601.235C478.066 629.872 420.841 637.771 365.684 635.168C280.625 631.166 195.946 602.707 128.954 549.405C61.9618 496.102 13.8149 417.301 2.40514 331.717C-5.35291 273.564 5.92486 214.549 31.7508 163.716Z" fill="white"/>
<path d="M5.91016 191.907C7.64069 198.869 6.79009 186.06 10.1778 170.41C13.5656 154.76 19.3878 161.098 19.3878 161.098" stroke="#263238" stroke-linecap="round" stroke-linejoin="round"/>
<path d="M4.85425 175.915L15.4867 171.481" stroke="#263238" stroke-linecap="round" stroke-linejoin="round"/>
<path d="M24.2715 166.186C24.2715 166.186 17.9213 179.574 27.4979 185.198" stroke="#263238" stroke-linecap="round" stroke-linejoin="round"/>
<path d="M33.2908 162.437C33.2908 162.437 43.7913 168.387 37.2211 181.151" stroke="#263238" stroke-linecap="round" stroke-linejoin="round"/>
<path d="M26.1045 170.708L33.6279 176.272" stroke="#263238" stroke-linecap="round" stroke-linejoin="round"/>
<path d="M32 168.253L26.1191 177.745" stroke="#263238" stroke-linecap="round" stroke-linejoin="round"/>
<path d="M65.7851 310.732C67.2162 301.886 61.3074 293.539 52.5874 292.087C43.8675 290.635 35.6385 296.629 34.2074 305.475C32.7763 314.32 38.6851 322.668 47.4051 324.119C56.125 325.571 64.3541 319.577 65.7851 310.732Z" stroke="#263238" stroke-linecap="round" stroke-linejoin="round"/>
<path d="M75.276 332.07C84.8766 330.073 91.0632 320.559 89.0943 310.82C87.1253 301.081 77.7463 294.806 68.1457 296.803C58.545 298.8 52.3584 308.314 54.3274 318.053C56.2963 327.792 65.6753 334.067 75.276 332.07Z" stroke="#263238" stroke-linecap="round" stroke-linejoin="round"/>
<path d="M64.587 301.383L57.2102 304.061" stroke="#263238" stroke-linecap="round" stroke-linejoin="round"/>
<path d="M65.6134 304.478L55.0249 308.36" stroke="#263238" stroke-linecap="round" stroke-linejoin="round"/>
<path d="M65.9947 308.182L54.1743 312.793" stroke="#263238" stroke-linecap="round" stroke-linejoin="round"/>
<path d="M65.1588 313.27L54.3796 318.253" stroke="#263238" stroke-linecap="round" stroke-linejoin="round"/>
<path d="M63.2669 317.167L55.0688 320.618" stroke="#263238" stroke-linecap="round" stroke-linejoin="round"/>
<path d="M57.7235 283.368C57.2689 281.88 52.0773 280.958 51.8573 284.855C51.6373 288.753 57.3275 285.51 58.9407 283.368C58.9407 283.368 56.0076 287.37 57.2395 288.158" stroke="#263238" stroke-linecap="round" stroke-linejoin="round"/>
<path d="M86.4677 288.217L81.8628 297.932C81.8628 297.932 84.1653 293.067 86.6291 293.469C89.6648 294.019 87.641 299.062 83.9746 297.203" stroke="#263238" stroke-linecap="round" stroke-linejoin="round"/>
<path d="M587.603 446.816L594.833 453.763" stroke="#263238" stroke-linecap="round" stroke-linejoin="round"/>
<path d="M594.833 445.001L588.776 454.18" stroke="#263238" stroke-linecap="round" stroke-linejoin="round"/>
<path d="M601.96 447.634L609.191 444.912" stroke="#263238" stroke-linecap="round" stroke-linejoin="round"/>
<path d="M612.666 437.25L617.066 441.208" stroke="#263238" stroke-linecap="round" stroke-linejoin="round"/>
<path d="M620.439 432.505L614.866 451.904" stroke="#263238" stroke-linecap="round" stroke-linejoin="round"/>
<path d="M282.942 337.861L302.403 324.278L328.17 326.108L329.783 359.238L310.865 372.969L287.517 371.244L282.942 337.861Z" stroke="#263238" stroke-linecap="round" stroke-linejoin="round"/>
<path d="M287.517 371.243L306.363 357.482L329.783 359.238" stroke="#263238" stroke-linecap="round" stroke-linejoin="round"/>
<path d="M306.363 357.483L302.403 324.278" stroke="#263238" stroke-linecap="round" stroke-linejoin="round"/>
<path d="M282.942 337.86L308.65 340.88L328.17 326.108" stroke="#263238" stroke-linecap="round" stroke-linejoin="round"/>
<path d="M308.65 340.88L310.865 372.969" stroke="#263238" stroke-linecap="round" stroke-linejoin="round"/>
<path d="M510.081 226.51L501.458 253.689L528.296 250.015L510.081 226.51Z" stroke="#263238" stroke-linecap="round" stroke-linejoin="round"/>
<path d="M510.081 226.51L514.877 251.696" stroke="#263238" stroke-linecap="round" stroke-linejoin="round"/>
<path d="M514.114 247.649L517.252 247.144L517.986 251.428" stroke="#263238" stroke-linecap="round" stroke-linejoin="round"/>
<path d="M172.1 475.215L185.519 481.895" stroke="#263238" stroke-linecap="round" stroke-linejoin="round"/>
<path d="M181.178 470.113L177.35 484.32" stroke="#263238" stroke-linecap="round" stroke-linejoin="round"/>
<path d="M183.04 463.195C183.26 462.964 183.53 462.789 183.829 462.683C184.128 462.577 184.447 462.544 184.761 462.586C185.074 462.628 185.374 462.744 185.636 462.925C185.897 463.105 186.113 463.346 186.267 463.627C187.616 465.769 184.976 470.262 184.976 470.262L190.358 468.179" stroke="#263238" stroke-linecap="round" stroke-linejoin="round"/>
<path d="M277.34 7.27441C290.143 14.5788 275.477 32.4306 275.477 42.8442C275.477 53.2577 290.143 51.7701 297.475 54.7454C300.408 54.7454 306.275 54.7454 306.113 62.3027" stroke="#263238" stroke-linecap="round" stroke-linejoin="round"/>
<path d="M263.07 16.751C265.299 29.0539 279.202 24.695 287.737 27.5067C302.403 32.3416 294.263 47.6941 289.893 56.9771C287.268 62.5112 284.657 70.2767 289.35 75.5281" stroke="#263238" stroke-linecap="round" stroke-linejoin="round"/>
<path d="M264.947 21.511L280.214 8.65771" stroke="#263238" stroke-linecap="round" stroke-linejoin="round"/>
<path d="M270.945 25.3643L282.428 15.6797" stroke="#263238" stroke-linecap="round" stroke-linejoin="round"/>
<path d="M277.691 35.1381L287.4 27.4023" stroke="#263238" stroke-linecap="round" stroke-linejoin="round"/>
<path d="M275.682 46.727L294.674 32.877" stroke="#263238" stroke-linecap="round" stroke-linejoin="round"/>
<path d="M282.956 52.1273L296.185 42.2642" stroke="#263238" stroke-linecap="round" stroke-linejoin="round"/>
<path d="M288.588 73.0585L305.116 59.4019" stroke="#263238" stroke-linecap="round" stroke-linejoin="round"/>
<path d="M288.999 62.3025L299.778 54.6113" stroke="#263238" stroke-linecap="round" stroke-linejoin="round"/>
<path d="M73.197 482.626C88.9445 476.237 96.6044 458.108 90.3059 442.134C84.0073 426.16 66.1354 418.39 50.3879 424.779C34.6404 431.168 26.9805 449.297 33.2791 465.271C39.5776 481.245 57.4495 489.016 73.197 482.626Z" stroke="#263238" stroke-linecap="round" stroke-linejoin="round"/>
<path d="M69.5146 423.579C80.2204 410.83 89.3277 403.615 92.8327 405.965C98.171 409.521 88.5944 433.799 71.4504 460.175C54.3064 486.551 36.0772 505.058 30.739 501.487C27.2192 499.152 30.1817 487.816 37.5144 472.806" stroke="#263238" stroke-linecap="round" stroke-linejoin="round"/>
<path d="M31.7361 460.116C16.8066 455.757 7.27399 450.669 7.87527 446.608C8.74054 440.181 34.5372 438.693 65.3494 443.379C96.1616 448.066 120.389 456.947 119.465 463.344C118.805 467.807 106.266 469.845 88.4476 469.161" stroke="#263238" stroke-linecap="round" stroke-linejoin="round"/>
<path d="M35.6517 437.548C24.3886 416.929 18.7571 400.847 22.5701 398.333C27.5857 395.046 46.9735 416.379 65.8773 445.938C84.7812 475.498 96.0296 502.216 91.0287 505.519C87.7143 507.691 78.1084 499.092 66.508 484.454" stroke="#263238" stroke-linecap="round" stroke-linejoin="round"/>
<path d="M97.159 419.443C96.6122 420.289 95.8306 420.951 94.9129 421.347C93.9952 421.742 92.9826 421.853 92.003 421.665C91.0234 421.477 90.1206 420.999 89.4087 420.291C88.6968 419.583 88.2077 418.676 88.0031 417.687C87.7985 416.697 87.8877 415.668 88.2593 414.729C88.6309 413.791 89.2683 412.985 90.091 412.414C90.9138 411.842 91.8849 411.531 92.8819 411.519C93.8788 411.508 94.8569 411.796 95.6925 412.347C96.2491 412.715 96.7286 413.19 97.1037 413.746C97.4788 414.302 97.742 414.927 97.8783 415.587C98.0145 416.246 98.0211 416.926 97.8977 417.588C97.7743 418.25 97.5233 418.88 97.159 419.443V419.443Z" fill="#263238"/>
<path d="M80.4549 497.828C79.9081 498.673 79.1265 499.336 78.2088 499.731C77.2911 500.126 76.2785 500.237 75.2989 500.049C74.3193 499.861 73.4165 499.383 72.7046 498.675C71.9927 497.967 71.5036 497.061 71.299 496.071C71.0944 495.081 71.1836 494.052 71.5552 493.113C71.9268 492.175 72.5642 491.369 73.3869 490.798C74.2097 490.227 75.1808 489.915 76.1778 489.904C77.1747 489.892 78.1528 490.18 78.9884 490.732C79.545 491.099 80.0245 491.574 80.3996 492.13C80.7747 492.686 81.0379 493.311 81.1742 493.971C81.3104 494.63 81.317 495.31 81.1936 495.972C81.0702 496.634 80.8192 497.264 80.4549 497.828V497.828Z" fill="#263238"/>
<path d="M53.4996 444.644C52.9528 445.49 52.1712 446.152 51.2535 446.548C50.3358 446.943 49.3232 447.054 48.3436 446.866C47.3639 446.678 46.4612 446.199 45.7493 445.491C45.0374 444.783 44.5482 443.877 44.3437 442.887C44.1391 441.897 44.2282 440.868 44.5999 439.93C44.9715 438.991 45.6089 438.186 46.4316 437.614C47.2543 437.043 48.2255 436.732 49.2225 436.72C50.2194 436.708 51.1974 436.996 52.0331 437.548C53.154 438.293 53.938 439.458 54.2129 440.788C54.4879 442.119 54.2313 443.505 53.4996 444.644V444.644Z" fill="#263238"/>
<path d="M375.129 221.972H392.42L401.058 206.798L392.42 191.609H375.129L366.491 206.798L375.129 221.972Z" stroke="#263238" stroke-linecap="round" stroke-linejoin="round"/>
<path d="M372.621 255.266L363.983 240.092H346.707" stroke="#263238" stroke-linecap="round" stroke-linejoin="round"/>
<path d="M349.024 206.798H366.3L374.938 191.609L366.3 176.435H349.024L340.386 191.609L349.024 206.798Z" stroke="#263238" stroke-linecap="round" stroke-linejoin="round"/>
<path d="M375.129 191.61H392.42L401.058 176.436L392.42 161.247H375.129L366.491 176.436L375.129 191.61Z" stroke="#263238" stroke-linecap="round" stroke-linejoin="round"/>
<path d="M374.953 193.96C376.233 193.96 377.27 192.907 377.27 191.609C377.27 190.311 376.233 189.259 374.953 189.259C373.673 189.259 372.636 190.311 372.636 191.609C372.636 192.907 373.673 193.96 374.953 193.96Z" fill="#263238"/>
<path d="M338.861 162.109C340.141 162.109 341.178 161.057 341.178 159.759C341.178 158.461 340.141 157.408 338.861 157.408C337.581 157.408 336.544 158.461 336.544 159.759C336.544 161.057 337.581 162.109 338.861 162.109Z" fill="#263238"/>
<path d="M370.304 255.281C370.304 254.816 370.44 254.361 370.695 253.975C370.949 253.588 371.311 253.287 371.735 253.109C372.158 252.931 372.624 252.885 373.073 252.975C373.523 253.066 373.936 253.29 374.26 253.619C374.584 253.947 374.805 254.366 374.894 254.822C374.983 255.278 374.938 255.751 374.762 256.18C374.587 256.61 374.29 256.977 373.909 257.235C373.528 257.493 373.08 257.631 372.621 257.631C372.317 257.631 372.016 257.57 371.735 257.452C371.453 257.334 371.198 257.161 370.983 256.943C370.768 256.724 370.597 256.465 370.481 256.18C370.364 255.895 370.304 255.589 370.304 255.281V255.281Z" fill="#263238"/>
<path d="M346.707 242.442C347.987 242.442 349.024 241.39 349.024 240.092C349.024 238.794 347.987 237.741 346.707 237.741C345.428 237.741 344.39 238.794 344.39 240.092C344.39 241.39 345.428 242.442 346.707 242.442Z" fill="#263238"/>
<path d="M417.762 176.867C417.762 176.398 417.899 175.94 418.156 175.551C418.413 175.162 418.778 174.859 419.205 174.68C419.632 174.502 420.101 174.456 420.554 174.548C421.007 174.64 421.422 174.867 421.748 175.2C422.073 175.532 422.294 175.955 422.382 176.415C422.471 176.874 422.422 177.35 422.244 177.782C422.065 178.214 421.764 178.583 421.378 178.841C420.993 179.099 420.541 179.235 420.079 179.232C419.773 179.232 419.471 179.171 419.189 179.052C418.907 178.933 418.651 178.758 418.435 178.538C418.22 178.319 418.05 178.058 417.934 177.771C417.818 177.484 417.76 177.177 417.762 176.867V176.867Z" fill="#263238"/>
<path d="M363.807 242.442C365.087 242.442 366.125 241.39 366.125 240.092C366.125 238.794 365.087 237.741 363.807 237.741C362.528 237.741 361.49 238.794 361.49 240.092C361.49 241.39 362.528 242.442 363.807 242.442Z" fill="#263238"/>
<path d="M398.726 176.867C398.726 176.399 398.863 175.942 399.119 175.553C399.375 175.164 399.739 174.861 400.165 174.682C400.591 174.502 401.06 174.456 401.513 174.547C401.965 174.638 402.38 174.863 402.706 175.194C403.033 175.525 403.255 175.947 403.345 176.405C403.435 176.864 403.388 177.34 403.212 177.772C403.035 178.204 402.737 178.574 402.353 178.834C401.97 179.093 401.519 179.232 401.058 179.232C400.439 179.232 399.846 178.983 399.409 178.539C398.972 178.096 398.726 177.494 398.726 176.867V176.867Z" fill="#263238"/>
<path d="M372.621 221.987C372.618 221.518 372.753 221.059 373.008 220.667C373.263 220.276 373.627 219.971 374.054 219.79C374.481 219.609 374.951 219.561 375.404 219.652C375.858 219.742 376.275 219.968 376.602 220.3C376.929 220.631 377.151 221.054 377.241 221.514C377.33 221.975 377.283 222.452 377.104 222.884C376.926 223.317 376.625 223.686 376.239 223.945C375.854 224.204 375.401 224.341 374.938 224.338C374.325 224.334 373.738 224.085 373.304 223.645C372.87 223.205 372.625 222.609 372.621 221.987Z" fill="#263238"/>
<path d="M401.058 176.837H420.079" stroke="#263238" stroke-linecap="round" stroke-linejoin="round"/>
<path d="M374.953 221.972L363.807 240.092" stroke="#263238" stroke-linecap="round" stroke-linejoin="round"/>
<path d="M349.025 176.435L338.861 159.759" stroke="#263238" stroke-linecap="round" stroke-linejoin="round"/>
<path d="M471.555 116.617C473.547 109.785 477.7 103.808 483.374 99.607C489.047 95.4064 495.925 93.2158 502.947 93.3732C509.969 93.5305 516.745 96.027 522.23 100.478C527.714 104.928 531.603 111.086 533.296 118" stroke="#263238" stroke-linecap="round" stroke-linejoin="round"/>
<path d="M498.569 158.033C490.766 157.127 483.564 153.341 478.337 147.396C473.109 141.45 470.22 133.762 470.22 125.795" stroke="#263238" stroke-linecap="round" stroke-linejoin="round"/>
<path d="M534.221 125.795C534.221 134.398 530.853 142.648 524.857 148.733C518.862 154.817 510.73 158.237 502.25 158.241" stroke="#263238" stroke-linecap="round" stroke-linejoin="round"/>
<path d="M536.039 105.222C546.041 103.927 552.743 104.626 553.784 107.661C555.852 113.701 534.455 126.718 505.989 136.745C477.524 146.772 452.783 149.985 450.7 143.93C449.6 140.702 455.203 135.48 464.999 129.783" stroke="#263238" stroke-linecap="round" stroke-linejoin="round"/>
<path d="M363.807 82.981L366.872 89.2886L373.721 90.3002L368.764 95.1946L369.937 102.127L363.807 98.8542L357.677 102.127L358.85 95.1946L353.893 90.3002L360.742 89.2886L363.807 82.981Z" stroke="#263238" stroke-linecap="round" stroke-linejoin="round"/>
<path d="M147.286 66.2302C147.282 71.8251 145.09 77.1899 141.191 81.1475C137.293 85.105 132.006 87.3321 126.49 87.34C125.815 87.34 125.156 87.3102 124.51 87.2507C120.496 86.8645 116.679 85.3038 113.524 82.7583C110.368 80.2129 108.009 76.7923 106.733 72.9124C105.458 69.0324 105.321 64.8602 106.34 60.9029C107.358 56.9456 109.488 53.3737 112.47 50.6212C115.453 47.8688 119.159 46.0544 123.139 45.3986C127.118 44.7428 131.2 45.2739 134.888 46.9273C138.576 48.5806 141.711 51.2851 143.912 54.7119C146.113 58.1387 147.285 62.1403 147.286 66.2302V66.2302Z" stroke="#263238" stroke-linecap="round" stroke-linejoin="round"/>
<path d="M143.957 70.0382C143.96 70.6862 143.773 71.3204 143.42 71.8606C143.067 72.4007 142.564 72.8225 141.975 73.0725C141.386 73.3225 140.737 73.3895 140.11 73.2649C139.483 73.1403 138.907 72.8297 138.454 72.3726C138.001 71.9155 137.693 71.3324 137.567 70.6971C137.441 70.0618 137.504 69.403 137.748 68.8041C137.992 68.2052 138.405 67.6932 138.936 67.3329C139.467 66.9726 140.092 66.7803 140.73 66.7803C141.583 66.7803 142.402 67.123 143.007 67.7336C143.611 68.3442 143.953 69.1728 143.957 70.0382V70.0382Z" stroke="#263238" stroke-linecap="round" stroke-linejoin="round"/>
<path d="M114.992 78.3398C114.993 79.1152 114.826 79.8812 114.501 80.5833C114.177 81.2853 113.703 81.906 113.115 82.4011C110.38 80.1111 108.274 77.1444 107 73.7875C107.806 73.2849 108.736 73.022 109.683 73.0288C110.377 73.019 111.066 73.1491 111.709 73.4116C112.353 73.674 112.939 74.0637 113.433 74.5578C113.927 75.052 114.319 75.6408 114.587 76.29C114.854 76.9393 114.992 77.636 114.992 78.3398Z" stroke="#263238" stroke-linecap="round" stroke-linejoin="round"/>
<path d="M140.73 81.6569C136.885 85.3516 131.787 87.4072 126.49 87.3992C125.815 87.3992 125.156 87.3695 124.51 87.3099C124.392 86.7375 124.333 86.1542 124.334 85.5694C124.335 83.5917 124.995 81.6723 126.205 80.1223C127.416 78.5723 129.108 77.4825 131.006 77.0296C132.903 76.5767 134.896 76.7873 136.661 77.6272C138.427 78.467 139.86 79.887 140.73 81.6569V81.6569Z" stroke="#263238" stroke-linecap="round" stroke-linejoin="round"/>
<path d="M121.46 57.8548C124.1 57.8548 126.241 55.6835 126.241 53.005C126.241 50.3266 124.1 48.1553 121.46 48.1553C118.819 48.1553 116.679 50.3266 116.679 53.005C116.679 55.6835 118.819 57.8548 121.46 57.8548Z" stroke="#263238" stroke-linecap="round" stroke-linejoin="round"/>
<path d="M125.874 66.7805C125.874 67.2248 125.744 67.6591 125.501 68.0285C125.258 68.398 124.912 68.6859 124.507 68.8559C124.102 69.0259 123.657 69.0704 123.228 68.9837C122.798 68.897 122.403 68.6831 122.094 68.3689C121.784 68.0548 121.573 67.6545 121.488 67.2188C121.402 66.783 121.446 66.3314 121.614 65.9209C121.781 65.5104 122.065 65.1596 122.429 64.9128C122.793 64.6659 123.222 64.5342 123.66 64.5342C123.95 64.5342 124.238 64.5923 124.507 64.7052C124.776 64.8181 125.02 64.9835 125.225 65.1921C125.431 65.4007 125.594 65.6484 125.705 65.9209C125.817 66.1934 125.874 66.4855 125.874 66.7805Z" stroke="#263238" stroke-linecap="round" stroke-linejoin="round"/>
<path d="M143.37 53.9125C142.788 54.1061 142.179 54.2016 141.566 54.1951C140.766 54.1951 139.973 54.0349 139.234 53.7238C138.494 53.4126 137.823 52.9565 137.257 52.3816C136.692 51.8068 136.244 51.1244 135.939 50.3737C135.634 49.6229 135.478 48.8185 135.48 48.0065C135.465 47.7489 135.465 47.4905 135.48 47.2329C138.621 48.7521 141.335 51.0492 143.37 53.9125V53.9125Z" stroke="#263238" stroke-linecap="round" stroke-linejoin="round"/>
<path d="M621.539 311.187L623.783 306.069L620.146 304.046C620.279 303.145 620.304 302.231 620.219 301.324L623.944 299.479L621.964 294.257L617.975 295.418C617.44 294.689 616.82 294.029 616.127 293.454L617.491 289.467L612.446 287.191L610.437 290.88C609.546 290.769 608.644 290.769 607.753 290.88L605.949 287.102L600.787 289.11L601.946 293.141C601.226 293.693 600.572 294.327 599.995 295.031L596.079 293.647L593.894 298.69L597.531 300.728C597.397 301.629 597.372 302.544 597.458 303.451L593.718 305.281L595.698 310.517L599.687 309.342C600.226 310.072 600.846 310.736 601.535 311.321L600.186 315.293L605.231 317.569L607.225 313.879C608.113 314.015 609.015 314.04 609.909 313.954L611.728 317.747L616.875 315.739L615.731 311.692C616.446 311.146 617.096 310.517 617.667 309.818L621.539 311.187ZM606.199 308.33C605.041 307.808 604.061 306.949 603.385 305.862C602.708 304.775 602.364 303.509 602.396 302.224C602.429 300.939 602.836 299.692 603.567 298.642C604.297 297.591 605.319 296.784 606.502 296.323C607.684 295.861 608.976 295.766 610.212 296.048C611.448 296.331 612.574 296.979 613.448 297.911C614.321 298.842 614.902 300.016 615.118 301.283C615.334 302.549 615.175 303.853 614.661 305.028C613.968 306.602 612.688 307.833 611.102 308.452C609.516 309.071 607.753 309.027 606.199 308.33V308.33Z" stroke="#263238" stroke-linecap="round" stroke-linejoin="round"/>
<path d="M594.73 337.444L597.781 330.497L592.853 327.73C593.029 326.508 593.058 325.269 592.941 324.04L598.015 321.541L595.361 314.445L589.949 316.037C589.226 315.042 588.384 314.142 587.442 313.359L589.289 307.944L582.382 304.805L579.669 309.803C578.464 309.628 577.244 309.593 576.032 309.699L573.568 304.567L566.558 307.304L568.127 312.779C567.153 313.526 566.267 314.384 565.487 315.338L560.164 313.523L557.113 320.47L562.041 323.237C561.865 324.459 561.836 325.697 561.953 326.926L556.879 329.426L559.577 336.522L564.989 334.945C565.716 335.936 566.558 336.835 567.496 337.623L565.649 343.023L572.512 346.117L575.225 341.104C576.429 341.286 577.65 341.321 578.862 341.208L581.326 346.34L588.336 343.618L586.767 338.128C587.741 337.386 588.626 336.533 589.407 335.584L594.73 337.444ZM573.905 333.561C572.331 332.85 571 331.68 570.081 330.201C569.162 328.722 568.697 327 568.743 325.252C568.789 323.505 569.346 321.81 570.342 320.383C571.338 318.957 572.728 317.862 574.338 317.237C575.948 316.612 577.704 316.485 579.384 316.873C581.065 317.261 582.594 318.146 583.779 319.416C584.963 320.686 585.75 322.284 586.039 324.007C586.328 325.731 586.107 327.502 585.403 329.098C584.938 330.158 584.271 331.114 583.441 331.912C582.611 332.71 581.635 333.334 580.567 333.749C579.499 334.163 578.361 334.36 577.218 334.328C576.075 334.296 574.949 334.035 573.905 333.561Z" stroke="#263238" stroke-linecap="round" stroke-linejoin="round"/>
<path d="M290.714 271.496C288.705 275.359 286.436 279.077 283.924 282.624C270.895 301.001 251.749 313.973 230.024 319.144C208.299 324.315 185.463 321.335 165.735 310.756C163.696 309.67 161.702 308.509 159.795 307.289C157.889 306.07 156.026 304.82 154.237 303.481C152.067 301.889 149.984 300.193 147.99 298.423C147.862 298.326 147.744 298.216 147.638 298.096V298.096C134.642 286.429 125.143 271.289 120.226 254.406C115.31 237.523 115.174 219.578 119.835 202.62C124.495 185.663 133.764 170.377 146.582 158.51C159.4 146.642 175.251 138.671 192.323 135.508C209.395 132.345 227 134.116 243.126 140.621C259.253 147.125 273.251 158.099 283.52 172.291C293.79 186.482 299.917 203.317 301.202 220.873C302.487 238.428 298.878 255.997 290.788 271.571L290.714 271.496Z" fill="#F99D1B"/>
<g opacity="0.6">
<path opacity="0.6" d="M290.714 271.496C288.705 275.359 286.436 279.077 283.924 282.624L282.135 281.136L279.055 279.485L275.814 277.759L276.357 273.787L276.181 270.202C275.99 266.617 278.542 269.548 280.581 268.462C282.17 267.309 283.455 265.776 284.32 263.999C284.32 263.999 285.787 259.223 285.303 257.304C284.513 255.093 283.582 252.936 282.516 250.848L277.266 258.286L272.866 257.944L268.701 255.712L268.159 249.836L266.018 248.706L265.123 245.329L253.552 242.041L252.232 239.69C250.912 237.34 245.589 236.135 245.589 236.135L246.894 233.07L248.947 229.649C251.015 226.227 253.156 231.91 253.156 231.91L255.605 233.204L260.151 229.336L261.354 223.787L268.76 224.219C268.615 223.468 268.728 222.689 269.08 222.012C269.433 221.336 270.003 220.802 270.696 220.5C273.16 219.518 272.075 214.088 271.136 212.08C270.197 210.071 266.736 211.693 266.736 211.693C266.736 211.693 262.967 205.876 262.454 203.555C261.941 201.235 269.64 202.068 272.94 199.732C276.24 197.396 275.11 192.755 273.497 192.651C271.884 192.547 276.65 182.088 285.816 184.96C288.368 185.763 289.981 185.48 290.978 184.588C297.855 198.019 301.423 212.94 301.378 228.075C301.332 243.21 297.673 258.108 290.714 271.496V271.496Z" fill="white"/>
<path opacity="0.6" d="M226.582 231.255L223.444 235.257C223.444 235.257 222.109 232.029 220.203 233.769L217.269 236.417L215.143 242.457L211.33 244.957L208.998 243.722L206.798 242.532L204.408 241.252L202.12 245.715L200.257 249.286C201.165 251.038 202.294 252.664 203.616 254.12L207.664 261.365L212.591 263.894C214.646 263.972 216.692 264.22 218.707 264.638L222.094 266.438L220.892 273.877C220.892 273.877 218.34 278.087 216.639 276.926L214.923 275.781L212.137 285.569L212.019 290.955C212.019 290.955 210.362 291.654 208.69 292.219C207.018 292.785 208.074 292.487 204.569 293.588C201.064 294.689 201.343 294.644 198.498 295.462C196.072 296.323 193.739 297.43 191.531 298.765L191.781 303.942L185.079 304.939L181.324 302.915L182.248 299.643L182.688 294.525L182.175 290.702L180.562 287.325L185.079 283.174L184.081 280.571L181.515 275.394L176.089 278.369L173.302 279.857L166.996 276.986L166.307 273.103L164.195 266.126L162.23 261.782L158.739 256.992L157.859 252.871L159.825 249.092L160.866 247.099L157.654 242.71L156.774 239.586L151.363 234.602C151.363 234.602 152.932 234.498 152.58 232.282C152.228 230.065 155.674 226.331 155.674 226.331C157.625 227.373 163.476 231.508 163.476 231.508L168.595 232.222C168.595 232.222 169.621 232.222 170.618 230.259C171.783 228.452 173.152 226.79 174.695 225.305C174.695 225.305 172.334 216.989 174.021 215.873C175.707 214.757 177.423 209.312 177.423 209.312L178.773 206.709C178.773 206.709 175.59 205.296 174.989 203.585C174.388 201.874 166.541 204.15 166.541 204.15L161.13 207.959L156.862 211.306L155.014 214.861C155.014 214.861 151.245 210.264 151.231 212.838C150.943 215.477 150.373 218.076 149.529 220.589C149.529 220.589 150.307 221.005 149.28 222.999C148.254 224.992 147.139 224.888 144.881 225.171C141.936 225.201 138.994 224.997 136.081 224.561C136.081 224.561 134.615 230.065 135.627 231.017L136.624 231.94C136.624 231.94 135.055 235.941 133.5 235.108L129.716 233.085L124.422 235.257L118.556 241.832L117.251 241.565C113.655 217.103 119.725 192.19 134.141 172.244C148.556 152.298 170.151 138.931 194.23 135.049C194.567 136.536 194.934 137.935 194.934 137.935L193.467 145.284L191.59 148.914L189.977 152.023L187.704 156.397L193.526 161.841L192.279 168.283L189.126 170.291L188.217 175.126L193.629 185.852L195.095 190.062C194.19 192.078 193.744 194.274 193.79 196.489C193.79 196.489 194.45 200.506 197.339 202.097C200.228 203.689 204.027 205.564 204.027 205.564L203.719 211.514L202.413 213.002L204.584 219.414C211.198 222.047 210.567 224.248 211.198 222.047L211.843 219.86L216.346 218.209L222.08 225.156C222.747 225.147 223.406 225.308 223.995 225.626C224.585 225.943 225.086 226.405 225.453 226.971C227.125 229.113 229.735 227.253 226.582 231.255Z" fill="white"/>
<path opacity="0.6" d="M148.855 283.07C149.016 285.183 146.376 287.831 146.376 287.831L148.532 288.976L149.192 294.927L147.564 298.081C136.029 287.744 127.231 274.641 121.973 259.967L123.146 253.659L128.323 252.916C128.323 252.916 132.957 249.792 135.011 250.625C137.064 251.458 138.941 256.575 138.941 256.575C138.941 256.575 140.407 263.478 140.217 263.344H140.129H140.246L142.358 264.475L142.959 267.197L140.026 272.85H135.304C135.304 272.85 134.365 272.344 134.277 274.829C134.354 275.691 134.612 276.526 135.035 277.278C135.457 278.03 136.034 278.681 136.726 279.188L141.83 277.864L143.194 272.508L148.21 271.511C148.21 271.511 147.491 274.799 148.664 275.424L149.852 276.063L150.556 279.991C150.031 280.307 149.597 280.758 149.298 281.299C148.999 281.84 148.847 282.451 148.855 283.07Z" fill="white"/>
<path opacity="0.6" d="M173.112 291.49C172.657 290.211 172.466 289.095 169.343 287.429C166.219 285.763 166.409 286.358 165.178 287.742C164.647 288.453 163.923 288.992 163.094 289.29C162.265 289.589 161.368 289.635 160.514 289.423C158.461 288.961 159.531 291.312 159.531 291.312L160.03 297.664L154.237 303.466C156.026 304.805 157.879 306.074 159.795 307.274L161.027 303.436L170.648 306.293C168.609 305.683 169.812 302.856 169.812 302.856L167.759 301.755C167.759 301.755 173.566 292.74 173.112 291.49Z" fill="white"/>
<path opacity="0.6" d="M233.71 258.465L230.557 255.236L226.949 256.382L225.482 259.357L224.382 261.499L225.849 264.475L228.782 268.09L230.454 264.847C230.454 264.847 235.103 264.847 237.537 262.124C239.972 259.402 233.71 258.465 233.71 258.465Z" fill="white"/>
<path opacity="0.6" d="M224.441 243.9L230.307 247.024L230.542 245.626C230.847 244.506 231.388 243.465 232.126 242.576L227.638 237.756L224.441 243.9Z" fill="white"/>
<path opacity="0.6" d="M222.446 313.151L220.76 310.637L218.795 309.595H212.796L209.379 316.171C209.379 316.171 206.109 315.724 201.812 315.338C197.515 314.951 198.571 316.751 198.571 316.751L197.456 320.886C208.298 322.241 219.29 321.641 229.926 319.116C228.69 318.242 227.407 317.437 226.083 316.706L222.446 313.151Z" fill="white"/>
</g>
<path d="M290.714 271.496C288.705 275.359 286.436 279.077 283.924 282.624C270.895 301.001 251.749 313.973 230.024 319.144C208.299 324.315 185.463 321.335 165.735 310.756C163.696 309.67 161.702 308.509 159.795 307.289C157.889 306.07 156.026 304.82 154.237 303.481C152.067 301.889 149.984 300.193 147.99 298.423C147.862 298.326 147.744 298.216 147.638 298.096V298.096C134.642 286.429 125.143 271.289 120.226 254.406C115.31 237.523 115.174 219.578 119.835 202.62C124.495 185.663 133.764 170.377 146.582 158.51C159.4 146.642 175.251 138.671 192.323 135.508C209.395 132.345 227 134.116 243.126 140.621C259.253 147.125 273.251 158.099 283.52 172.291C293.79 186.482 299.917 203.317 301.202 220.873C302.487 238.428 298.878 255.997 290.788 271.571L290.714 271.496Z" stroke="#263238" stroke-linecap="round" stroke-linejoin="round"/>
<path d="M229.926 319.116C219.29 321.641 208.298 322.241 197.456 320.886L198.571 316.751C198.571 316.751 197.515 314.951 201.812 315.338C206.109 315.724 209.379 316.171 209.379 316.171L212.796 309.595H218.795L220.76 310.637L222.446 313.151L226.083 316.706C227.407 317.437 228.69 318.242 229.926 319.116Z" stroke="#263238" stroke-linecap="round" stroke-linejoin="round"/>
<path d="M291.037 184.602C290.04 185.495 288.427 185.778 285.875 184.974C276.709 182.103 271.957 192.547 273.556 192.666C275.154 192.785 276.284 197.486 272.998 199.747C269.713 202.008 261.999 201.234 262.513 203.57C263.026 205.906 266.795 211.708 266.795 211.708C266.795 211.708 270.168 210.101 271.121 212.094C272.075 214.088 273.16 219.533 270.696 220.514C270.003 220.816 269.433 221.35 269.08 222.027C268.728 222.704 268.615 223.483 268.76 224.234L261.354 223.802L260.151 229.351L255.605 233.219L253.156 231.925C253.156 231.925 251.015 226.242 248.947 229.663L246.894 233.085L245.589 236.15C245.589 236.15 250.912 237.355 252.232 239.705L253.552 242.056L265.123 245.343L266.018 248.72L268.159 249.851L268.701 255.727L273.013 258.018L277.413 258.36L282.663 250.922C283.729 253.01 284.66 255.167 285.449 257.378C285.963 259.297 284.467 264.073 284.467 264.073C283.602 265.85 282.317 267.383 280.727 268.536C278.63 269.622 276.064 266.691 276.328 270.276L276.504 273.862L275.961 277.834L279.202 279.559L282.282 281.211L284.071 282.698" stroke="#263238" stroke-linecap="round" stroke-linejoin="round"/>
<path d="M117.368 241.565L118.673 241.833L124.539 235.257L129.834 233.085L133.617 235.108C135.172 235.942 136.741 231.94 136.741 231.94L135.744 231.017C134.732 230.065 136.198 224.561 136.198 224.561C139.111 224.997 142.053 225.201 144.998 225.171C147.315 224.888 148.415 224.978 149.397 222.999C150.38 221.02 149.647 220.589 149.647 220.589C150.49 218.076 151.06 215.477 151.348 212.838C151.348 210.265 155.132 214.862 155.132 214.862L156.979 211.306L161.115 207.974L166.527 204.165C166.527 204.165 174.373 201.874 174.974 203.6C175.575 205.326 178.758 206.724 178.758 206.724L177.408 209.327C177.408 209.327 175.678 214.743 174.006 215.888C172.334 217.033 174.681 225.32 174.681 225.32C173.137 226.805 171.769 228.467 170.604 230.274C169.577 232.267 168.58 232.237 168.58 232.237L163.462 231.523C163.462 231.523 157.595 227.388 155.66 226.346C155.66 226.346 152.213 230.08 152.565 232.297C152.917 234.513 151.348 234.618 151.348 234.618L156.759 239.601L157.639 242.725L160.851 247.114L159.81 249.107L157.845 252.886L158.725 257.007L162.215 261.797L164.195 266.126L166.336 273.133L167.025 277.016L173.331 279.887L176.118 278.399L181.544 275.424L184.111 280.601L185.108 283.204L180.591 287.355L182.204 290.732L182.717 294.555L182.277 299.673L181.354 302.945L185.108 304.969L191.81 303.987L191.561 298.795C193.768 297.46 196.102 296.353 198.527 295.492C201.372 294.674 201.093 294.719 204.598 293.618C208.103 292.517 207.033 292.814 208.719 292.249C210.406 291.684 212.048 290.985 212.048 290.985L212.166 285.599L214.952 275.811L216.668 276.956C218.369 278.116 220.921 273.906 220.921 273.906L222.124 266.468L218.663 264.638C216.648 264.221 214.602 263.972 212.547 263.895L207.722 261.321L203.674 254.076C202.353 252.619 201.224 250.994 200.316 249.241L202.179 245.671L204.466 241.208L206.857 242.487L209.057 243.677L211.388 244.912L215.202 242.413L217.328 236.373L220.261 233.725C222.168 231.97 223.502 235.213 223.502 235.213L226.641 231.211C229.794 227.209 227.183 229.069 225.57 227.016C225.203 226.45 224.702 225.988 224.112 225.67C223.523 225.353 222.864 225.192 222.197 225.201L216.463 218.253L211.902 220.009L211.256 222.196C210.626 224.397 211.256 222.196 204.642 219.562L202.472 213.151L203.777 211.663L204.085 205.712C204.085 205.712 200.287 203.823 197.398 202.246C194.508 200.669 193.849 196.638 193.849 196.638C193.802 194.423 194.248 192.227 195.154 190.211L193.687 186.001L188.276 175.275L189.185 170.44L192.338 168.432L193.585 161.99L187.924 156.546L190.197 152.172L191.81 149.063L193.687 145.433L195.154 138.084C195.154 138.084 194.787 136.715 194.45 135.198" stroke="#263238" stroke-linecap="round" stroke-linejoin="round"/>
<path d="M148.063 298.408C147.949 298.275 147.821 298.156 147.682 298.051V298.051L149.309 294.897L148.649 288.947L146.494 287.801C146.494 287.801 149.133 285.153 148.972 283.041C148.944 282.41 149.082 281.784 149.374 281.226C149.665 280.669 150.099 280.201 150.629 279.872L149.925 275.945L148.737 275.305C147.564 274.68 148.283 271.392 148.283 271.392L143.267 272.389L141.903 277.745L136.8 279.069C136.107 278.562 135.53 277.911 135.108 277.159C134.685 276.407 134.427 275.572 134.351 274.71C134.439 272.225 135.377 272.731 135.377 272.731H140.099L143.033 267.078L142.431 264.356L140.319 263.225" stroke="#263238" stroke-linecap="round" stroke-linejoin="round"/>
<path d="M140.187 263.225C140.422 263.359 138.912 256.456 138.912 256.456C138.912 256.456 137.034 251.413 134.981 250.506C132.928 249.598 128.294 252.797 128.294 252.797L123.117 253.541L121.944 259.848" stroke="#263238" stroke-linecap="round" stroke-linejoin="round"/>
<path d="M161.027 303.436L159.795 307.274C157.84 306.064 155.987 304.795 154.237 303.466L160.03 297.664L159.531 291.312C159.531 291.312 158.461 288.961 160.514 289.423C161.368 289.635 162.265 289.589 163.094 289.29C163.923 288.992 164.647 288.453 165.178 287.742C166.38 286.358 166.233 285.763 169.343 287.429C172.452 289.095 172.657 290.211 173.112 291.49C173.566 292.77 167.759 301.8 167.759 301.8L169.812 302.901C169.812 302.901 168.609 305.727 170.648 306.337L161.027 303.436Z" stroke="#263238" stroke-linecap="round" stroke-linejoin="round"/>
<path d="M226.949 256.382L230.557 255.236L233.71 258.465C233.71 258.465 239.942 259.283 237.508 262.035C235.074 264.787 230.425 264.757 230.425 264.757L228.723 268L225.79 264.385L224.324 261.41L225.424 259.268L226.949 256.382Z" stroke="#263238" stroke-linecap="round" stroke-linejoin="round"/>
<path d="M232.126 242.576C231.388 243.465 230.847 244.506 230.542 245.626L230.307 247.024L224.441 243.9L227.638 237.756L232.126 242.576Z" stroke="#263238" stroke-linecap="round" stroke-linejoin="round"/>
<path d="M550.382 593.484C542.521 600.119 481.967 642.279 395.558 635.48C390.909 595.581 373.178 431.672 393.343 405.965C393.343 405.965 442.268 382.297 487.335 392.234C532.402 402.172 549.942 411.693 553.154 419.934C555.588 426.167 552.112 542.234 550.382 593.484Z" fill="#263238"/>
<path d="M485.839 409.744C459.881 432.55 426.444 427.73 427.177 410.22C427.294 407.483 430.183 404.091 430.183 404.091L429.171 402.514L424.772 395.775C421.56 390.732 417.542 384.394 414.741 379.783C412.394 375.855 470.895 339.348 470.895 360.339C470.895 389.913 485.208 395.477 485.208 395.477C490.605 397.679 495.636 401.16 485.839 409.744Z" fill="white" stroke="#263238" stroke-linecap="round" stroke-linejoin="round"/>
<path d="M502.25 454.909C502.25 454.909 497.014 473.118 499.493 478.34" stroke="white" stroke-linecap="round" stroke-linejoin="round"/>
<path d="M496.134 402.038C496.134 419.607 444.468 436.819 429.333 419.191" stroke="white" stroke-linecap="round" stroke-linejoin="round"/>
<path d="M453.633 381.761C453.633 381.761 450.172 395.001 434.04 405.34C433.271 404 432.029 403.006 430.565 402.559C430.079 402.478 429.584 402.478 429.098 402.559L424.698 395.82C433.043 389.72 453.633 381.761 453.633 381.761Z" fill="#263238"/>
<path d="M460.878 365.486C460.878 365.486 460.702 378.548 457.945 381.211C437.487 401.116 417.483 402.693 414.183 397.441C391.965 362.095 397.215 352.812 394.957 346.757C390.953 336.135 386.04 318.789 388.211 308.286C393.05 284.826 436.607 266.632 459.544 290.226C470.543 301.517 474.019 326.019 471.701 346.43" fill="white"/>
<path d="M460.878 365.486C460.878 365.486 460.702 378.548 457.945 381.211C437.487 401.116 417.483 402.693 414.183 397.441C391.965 362.095 397.215 352.812 394.957 346.757C390.953 336.135 386.04 318.789 388.211 308.286C393.05 284.826 436.607 266.632 459.544 290.226C470.543 301.517 474.019 326.019 471.701 346.43" stroke="#263238" stroke-linecap="round" stroke-linejoin="round"/>
<path d="M397.758 335.837C397.758 335.837 391.642 333.055 390.323 336.373" stroke="#263238" stroke-linecap="round" stroke-linejoin="round"/>
<path d="M412.585 336.046C412.585 336.046 425.3 330.645 431.019 337.206" stroke="#263238" stroke-linecap="round" stroke-linejoin="round"/>
<path d="M426.708 345.195C426.913 347.129 425.989 348.81 424.625 348.974C423.261 349.137 422 347.664 421.795 345.73C421.589 343.797 422.513 342.101 423.877 341.952C425.241 341.803 426.444 343.261 426.708 345.195Z" fill="#263238"/>
<path d="M401.776 345.775C401.996 347.709 401.058 349.405 399.694 349.554C398.33 349.702 397.069 348.259 396.863 346.325C396.658 344.391 397.582 342.695 398.946 342.547C400.31 342.398 401.542 343.841 401.776 345.775Z" fill="#263238"/>
<path d="M402.392 340.687C404.167 343.588 403.199 348.542 400.852 355.34C398.506 362.139 400.574 364.594 409.578 365.278" fill="white"/>
<path d="M402.392 340.687C404.167 343.588 403.199 348.542 400.852 355.34C398.506 362.139 400.574 364.594 409.578 365.278" stroke="#263238" stroke-linecap="round" stroke-linejoin="round"/>
<path d="M409.578 377.045C409.578 377.045 421.311 375.959 426.678 372.969" stroke="#263238" stroke-linecap="round" stroke-linejoin="round"/>
<path d="M483.903 309.595C483.903 300.759 475.309 282.624 460.233 280.586C451.566 271.392 439.217 268.015 424.229 271.511C389.589 279.574 379.045 314.266 377.534 320.009C377.388 320.544 377.314 320.842 377.314 320.842L386.583 318.462L382.594 326.361L387.448 329.619L386.333 330.869L391.965 336.373L390.205 326.316C391.29 319.83 398.653 310.756 398.653 310.756C395.966 314.288 394.291 318.504 393.813 322.939C396.746 315.218 414.345 308.063 414.345 308.063C408.64 312.764 405.545 321.958 405.545 321.958C410.972 315.174 423.687 310.785 431.826 308.45C434.568 315.159 438.924 322.166 445.142 326.049C451.008 329.708 450.803 337.265 450.803 337.265C457.115 341.716 461.764 348.193 464.002 355.653L471.1 365.501C471.1 365.501 483.903 349.568 483.903 309.595Z" fill="#263238"/>
<path d="M454.03 339.794C451.654 334.632 460.277 320.648 466.393 322.374C469.824 323.356 474.312 329.708 475.192 336.373C476.072 343.038 471.423 355.712 466.466 358.464C463.313 360.25 460.717 355.385 460.717 355.385" fill="white"/>
<path d="M454.03 339.794C451.654 334.632 460.277 320.648 466.393 322.374C469.824 323.356 474.312 329.708 475.192 336.373C476.072 343.038 471.423 355.712 466.466 358.464C463.313 360.25 460.717 355.385 460.717 355.385" stroke="#263238" stroke-linecap="round" stroke-linejoin="round"/>
<path d="M79.8831 592.279L245.589 552.99L591.225 593.469L502.25 655.221L79.8831 592.279Z" fill="white"/>
<path d="M79.8831 592.279L245.589 552.99L591.225 593.469" fill="white"/>
<path d="M79.8831 592.279L245.589 552.99L591.225 593.469" stroke="#263238" stroke-linecap="round" stroke-linejoin="round"/>
<path d="M223.282 600.163L290.363 570.098L375.173 574.531L337.453 607.244L223.282 600.163Z" fill="white" stroke="#263238" stroke-linecap="round" stroke-linejoin="round"/>
<path d="M396.614 404.478C375.1 413.403 370.465 433.472 333.904 512.779C333.904 512.779 317.67 516.155 308.973 536.164C300.276 556.173 314.839 571.972 331.602 571.437C331.602 571.437 338.333 577.387 352.134 576.777C365.934 576.167 426.928 481.493 426.928 481.493L396.614 404.478Z" fill="#263238"/>
<path d="M340.313 517.435C349.934 526.123 355.463 538.872 352.53 553.005" stroke="white" stroke-linecap="round" stroke-linejoin="round"/>
<path d="M349.596 521.615C349.596 521.615 361.417 524.234 363.25 539.586" stroke="white" stroke-linecap="round" stroke-linejoin="round"/>
<path d="M384.178 476.688C378.593 462.711 376.663 447.507 378.575 432.55" stroke="white" stroke-linecap="round" stroke-linejoin="round"/>
<path d="M382.506 456.456C381.611 462.704 387.976 495.968 387.932 530.943" stroke="white" stroke-linecap="round" stroke-linejoin="round"/>
<path d="M543.328 411.053C570.239 424.769 573.436 466.974 548.05 517.435C530.114 553.05 505.359 605.638 489.696 609.164C474.033 612.69 458.752 602.797 458.752 602.797C458.752 602.797 445.553 602.172 441.564 592.651C430.653 566.632 458.385 533.755 469.238 541.624C469.238 541.624 504.083 464.757 510.433 459.908" fill="#263238"/>
<path d="M439.071 576.837C435.507 558.881 463.371 537.697 469.238 541.624C469.238 541.624 489.931 542.799 493.025 557.319" stroke="white" stroke-linecap="round" stroke-linejoin="round"/>
<path d="M514.877 580.66C526.99 558.985 548.05 517.435 548.05 517.435" stroke="white" stroke-linecap="round" stroke-linejoin="round"/>
<path d="M469.238 541.624C469.238 541.624 483.742 532.817 494.58 541.148" stroke="white" stroke-linecap="round" stroke-linejoin="round"/>
<path d="M474.195 530.928C474.195 530.928 482.202 513.076 490.327 496.712C498.451 480.348 517.047 456.114 524.776 454.939" stroke="white" stroke-linecap="round" stroke-linejoin="round"/>
<path d="M321.351 563.017C319.609 562.931 317.907 562.459 316.364 561.633C291.433 548.438 272.045 526.629 260.371 510.979C255.833 504.997 251.655 498.743 247.862 492.249L253.845 466.245C253.845 466.245 259.477 481.122 282.106 495.745C304.735 510.369 331.616 515.189 340.313 529.961C348.013 542.83 334.447 563.657 321.351 563.017Z" fill="white"/>
<path opacity="0.4" d="M321.351 563.017C321.072 561.136 320.58 559.294 319.884 557.528C314.649 544.228 282.971 517.792 282.971 517.792C275.433 517.554 267.147 514.371 260.401 510.979C255.852 504.998 251.665 498.744 247.862 492.249L253.845 466.245C253.845 466.245 259.477 481.122 282.106 495.745C304.735 510.369 331.616 515.189 340.313 529.961C348.013 542.83 334.447 563.657 321.351 563.017Z" fill="#F99D1B"/>
<path d="M321.351 563.017C319.609 562.931 317.907 562.459 316.364 561.633C291.433 548.438 272.045 526.629 260.371 510.979C255.833 504.997 251.655 498.743 247.862 492.249L253.845 466.245C253.845 466.245 259.477 481.122 282.106 495.745C304.735 510.369 331.616 515.189 340.313 529.961C348.013 542.83 334.447 563.657 321.351 563.017Z" stroke="#263238" stroke-linecap="round" stroke-linejoin="round"/>
<path d="M264.889 490.672C264.889 490.672 261.794 504.537 253.64 501.428C249.24 499.747 240.764 486.418 239.165 479.693L264.889 490.672Z" fill="white" stroke="#263238" stroke-linecap="round" stroke-linejoin="round"/>
<path d="M228.943 405.296L235.602 401.814C235.602 401.814 254.417 401.978 266.091 411.603C276.694 420.351 282.077 434.052 282.077 434.052C282.077 434.052 323.272 410.978 365.347 424.218L382.506 521.228L303.62 526.465L254.388 479.024L228.943 405.296Z" fill="white" stroke="#263238" stroke-linecap="round" stroke-linejoin="round"/>
<path d="M387.932 525.111C387.932 525.111 378.678 524.828 366.301 525.245C347.587 525.84 321.732 527.982 309.912 534.959L309.354 534.766L298.531 530.928L298.311 530.601C296.317 527.625 280.229 504.195 257.248 494.659L224.749 402.543C224.749 402.543 258.48 404.031 276.914 434.945L286.168 438.336C286.168 438.336 341.237 421.794 372.064 427.744L387.932 525.111Z" fill="#F99D1B"/>
<path opacity="0.3" d="M298.311 530.616C296.317 527.64 280.229 504.21 257.248 494.674L224.749 402.559C224.749 402.559 258.48 404.046 276.914 434.96L298.311 530.616Z" fill="black" fill-opacity="0.7"/>
<path opacity="0.3" d="M366.3 525.245C347.587 525.84 321.732 527.982 309.912 534.959L309.354 534.766L287.737 441.669C287.737 441.669 305.424 437.637 310.865 439.675C310.85 439.705 346.81 466.617 366.3 525.245Z" fill="black" fill-opacity="0.7"/>
<path d="M387.932 525.111C387.932 525.111 378.678 524.828 366.301 525.245C347.587 525.84 321.732 527.982 309.912 534.959L309.354 534.766L298.531 530.928L298.311 530.601C296.317 527.625 280.229 504.195 257.248 494.659L224.749 402.543C224.749 402.543 258.48 404.031 276.914 434.945L286.168 438.336C286.168 438.336 341.237 421.794 372.064 427.744L387.932 525.111Z" stroke="#263238" stroke-linecap="round" stroke-linejoin="round"/>
<path d="M286.198 438.352L307.419 527.655" stroke="#263238" stroke-linecap="round" stroke-linejoin="round"/>
<path d="M298.531 530.943L277.926 441.699" stroke="#263238" stroke-linecap="round" stroke-linejoin="round"/>
<path d="M246.146 492.324C241.438 491 231.95 462.303 236.291 449.94C236.291 449.94 241.453 440.851 243.623 440.226C246.908 439.259 260.166 439.542 259.521 441.803C258.054 447.039 247.876 446.95 247.876 446.95L244.577 453.079L244.709 456.456C244.709 456.456 249.504 452.916 251.264 453.02C252.173 453.02 256.866 455.4 260.591 457.394C263.774 459.104 265.724 460.042 264.991 461.589C262.63 466.736 252.584 463.076 252.584 463.076L248.8 468.863C248.8 468.863 252.452 469.503 254.051 469.682C255.649 469.86 268.921 478.831 268.525 479.946C266.956 484.32 254.373 479.589 254.373 479.589L252.144 481.479C252.144 481.479 261.413 483.903 262.41 484.261C263.876 484.811 269.523 489.214 269.435 489.72C268.76 493.588 260.973 490.747 260.973 490.747L254.153 490.464C253.114 491.394 251.865 492.048 250.516 492.368" fill="white"/>
<path d="M246.146 492.324C241.438 491 231.95 462.303 236.291 449.94C236.291 449.94 241.453 440.851 243.623 440.226C246.908 439.259 260.166 439.542 259.521 441.803C258.054 447.039 247.876 446.95 247.876 446.95L244.577 453.079L244.709 456.456C244.709 456.456 249.504 452.916 251.264 453.02C252.173 453.02 256.866 455.4 260.591 457.394C263.774 459.104 265.724 460.042 264.991 461.589C262.63 466.736 252.584 463.076 252.584 463.076L248.8 468.863C248.8 468.863 252.452 469.503 254.051 469.682C255.649 469.86 268.921 478.831 268.525 479.946C266.956 484.32 254.373 479.589 254.373 479.589L252.144 481.479C252.144 481.479 261.413 483.903 262.41 484.261C263.876 484.811 269.523 489.214 269.435 489.72C268.76 493.588 260.973 490.747 260.973 490.747L254.153 490.464C253.114 491.394 251.865 492.048 250.516 492.368" stroke="#263238" stroke-linecap="round" stroke-linejoin="round"/>
<path d="M244.65 456.456C244.65 456.456 240.251 460.205 239.121 461.291C237.992 462.377 238.271 465.828 238.271 465.828" stroke="#263238" stroke-linecap="round" stroke-linejoin="round"/>
<path d="M241.468 473.445C241.468 477.224 243.961 479.515 245.105 480.735C246.248 481.955 243.271 485.272 246.571 487.652" stroke="#263238" stroke-linecap="round" stroke-linejoin="round"/>
<path d="M458.693 593.216C449.381 595.79 439.261 579.187 426.913 561.068C418.759 549.167 409.637 536.477 399.151 528.34C398.315 527.7 397.465 527.075 396.614 526.48L402.744 495.239C415.474 502.008 423.364 512.853 436.578 523.996C457.843 541.951 476.688 552.975 481.909 560.919C487.13 568.863 474.649 588.798 458.693 593.216Z" fill="white"/>
<path opacity="0.4" d="M426.913 561.053C418.759 549.152 409.637 536.462 399.151 528.325C400.533 528.396 401.915 528.184 403.214 527.7C403.214 527.7 419.786 541.341 426.913 561.053Z" fill="#F99D1B"/>
<path d="M458.693 593.216C449.381 595.79 439.261 579.187 426.913 561.068C418.759 549.167 409.637 536.477 399.151 528.34C398.315 527.7 397.465 527.075 396.614 526.48L402.744 495.239C415.474 502.008 423.364 512.853 436.578 523.996C457.843 541.951 476.688 552.975 481.909 560.919C487.13 568.863 474.649 588.798 458.693 593.216Z" stroke="#263238" stroke-linecap="round" stroke-linejoin="round"/>
<path d="M406.176 525.245C405.539 526.4 404.489 527.263 403.243 527.655C402.912 527.787 402.574 527.901 402.231 527.997H401.952C392.112 530.601 369.967 525.186 369.967 525.186C369.967 525.186 355.463 518.194 354.583 516.542C353.97 515.234 353.426 513.893 352.955 512.526L352.559 511.35C352.559 511.35 347.338 508.375 346.693 506.054C346.047 503.734 344.948 503.079 348.159 502.663C351.371 502.246 368.691 502.663 368.691 502.663L349.846 494.867C349.846 494.867 337.365 488.485 336.207 486.239C335.048 483.993 333.596 482.505 339.976 483.397C346.355 484.29 360.288 488.396 360.288 488.396L371.272 490.761L360.361 486.045C360.361 486.045 338.891 483.412 342.953 476.644H355.14C362.044 476.953 368.911 477.838 375.672 479.292C379.221 480.392 402.686 495.18 402.686 495.18" fill="white"/>
<path opacity="0.4" d="M401.923 528.057C392.082 530.66 369.938 525.245 369.938 525.245C369.938 525.245 355.433 518.253 354.553 516.602C353.94 515.294 353.397 513.953 352.926 512.585L370.729 514.564C370.107 515.702 369.78 516.982 369.78 518.283C369.78 519.585 370.107 520.864 370.729 522.002C372.709 525.617 395.265 529.277 401.923 528.057Z" fill="#F99D1B"/>
<path d="M406.176 525.245C405.539 526.4 404.489 527.263 403.243 527.655C402.912 527.787 402.574 527.901 402.231 527.997H401.952C392.112 530.601 369.967 525.186 369.967 525.186C369.967 525.186 355.463 518.194 354.583 516.542C353.97 515.234 353.426 513.893 352.955 512.526L352.559 511.35C352.559 511.35 347.338 508.375 346.693 506.054C346.047 503.734 344.948 503.079 348.159 502.663C351.371 502.246 368.691 502.663 368.691 502.663L349.846 494.867C349.846 494.867 337.365 488.485 336.207 486.239C335.048 483.993 333.596 482.505 339.976 483.397C346.355 484.29 360.288 488.396 360.288 488.396L371.272 490.761L360.361 486.045C360.361 486.045 338.891 483.412 342.953 476.644H355.14C362.044 476.953 368.911 477.838 375.672 479.292C379.221 480.392 402.686 495.18 402.686 495.18" stroke="#263238" stroke-linecap="round" stroke-linejoin="round"/>
<path d="M352.53 511.395L373.97 514.593" stroke="#263238" stroke-linecap="round" stroke-linejoin="round"/>
<path d="M138.941 577.968L192.646 594.332L290.905 571.586C290.905 571.586 230.894 554.299 230.337 554.731C229.779 555.162 138.941 577.968 138.941 577.968Z" fill="#F99D1B"/>
<path opacity="0.3" d="M138.941 577.968L192.646 594.332L290.905 571.586C290.905 571.586 230.894 554.299 230.337 554.731C229.779 555.162 138.941 577.968 138.941 577.968Z" fill="black" fill-opacity="0.7"/>
<path d="M138.941 577.968L192.646 594.332L290.905 571.586C290.905 571.586 230.894 554.299 230.337 554.731C229.779 555.162 138.941 577.968 138.941 577.968Z" stroke="#263238" stroke-linecap="round" stroke-linejoin="round"/>
<path d="M139.718 558.777C135.949 559.045 135.011 572.82 138.941 577.968L225.702 559.699L232.654 543.008L139.718 558.777Z" fill="#F99D1B"/>
<path opacity="0.3" d="M139.718 558.777C135.949 559.045 135.011 572.82 138.941 577.968L225.702 559.699L232.654 543.008L139.718 558.777Z" fill="black" fill-opacity="0.7"/>
<path d="M139.718 558.777C135.949 559.045 135.011 572.82 138.941 577.968L225.702 559.699L232.654 543.008L139.718 558.777Z" stroke="#263238" stroke-linecap="round" stroke-linejoin="round"/>
<path d="M286.696 558.584C286.696 558.584 285.406 565.828 286.241 570.291L192.544 591.803L143.15 577.045C143.15 577.045 138.017 567.837 142.49 560.681L232.742 545.135L286.696 558.584Z" fill="white" stroke="#263238" stroke-linecap="round" stroke-linejoin="round"/>
<path d="M139.718 558.777L232.654 542.993L290.362 557.825L193.306 577.447L139.718 558.777Z" fill="#F99D1B" stroke="#263238" stroke-linecap="round" stroke-linejoin="round"/>
<path d="M143.018 567.584L192.162 582.416L272.603 565.992" stroke="#263238" stroke-linecap="round" stroke-linejoin="round"/>
<path d="M285.977 567.509L199.48 586.239" stroke="#263238" stroke-linecap="round" stroke-linejoin="round"/>
<path d="M144.177 573.43C144.925 573.505 181.222 584.84 181.222 584.84" stroke="#263238" stroke-linecap="round" stroke-linejoin="round"/>
<path d="M278.909 564.073L285.787 562.942" stroke="#263238" stroke-linecap="round" stroke-linejoin="round"/>
<path d="M190.564 587.592L186.927 586.759" stroke="#263238" stroke-linecap="round" stroke-linejoin="round"/>
<path d="M142.49 560.681C144.413 562.929 145.526 565.772 145.646 568.746C145.766 571.72 144.886 574.646 143.15 577.045C141.543 574.653 140.63 571.851 140.513 568.959C140.396 566.067 141.081 563.199 142.49 560.681Z" fill="#263238"/>
<path opacity="0.3" d="M142.49 560.681C144.413 562.929 145.526 565.772 145.646 568.746C145.766 571.72 144.886 574.646 143.15 577.045C141.543 574.653 140.63 571.851 140.513 568.959C140.396 566.067 141.081 563.199 142.49 560.681Z" fill="#9E5F5F" fill-opacity="0.7"/>
<path d="M142.49 560.681C144.413 562.929 145.526 565.772 145.646 568.746C145.766 571.72 144.886 574.646 143.15 577.045C141.543 574.653 140.63 571.851 140.513 568.959C140.396 566.067 141.081 563.199 142.49 560.681Z" stroke="#263238" stroke-linecap="round" stroke-linejoin="round"/>
<path d="M343.217 582.416L437.003 586.328L427.866 619.071L312.507 614.608L343.217 582.416Z" fill="white"/>
<path opacity="0.4" d="M343.217 582.416L437.003 586.328L427.866 619.071L312.507 614.608L343.217 582.416Z" fill="#F99D1B"/>
<path d="M343.217 582.416L437.003 586.328L427.866 619.071L312.507 614.608L343.217 582.416Z" stroke="#263238" stroke-linecap="round" stroke-linejoin="round"/>
</g>
<defs>
<clipPath id="clip0">
<rect width="625" height="659" fill="white"/>
</clipPath>
</defs>
</svg>
