<svg width="120" height="24" viewBox="0 0 120 24" fill="none" xmlns="http://www.w3.org/2000/svg">
<path d="M2.00208 12.0016C2.00324 16.9209 5.58048 21.1096 10.4391 21.8806V14.8916H7.90208V12.0016H10.4421V9.80156C10.3285 8.7591 10.6846 7.72015 11.4137 6.96649C12.1428 6.21283 13.1694 5.82257 14.2151 5.90156C14.9656 5.91368 15.7143 5.98052 16.4551 6.10156V8.56056H15.1911C14.7559 8.50356 14.3184 8.64728 14.0018 8.95122C13.6853 9.25517 13.5238 9.68644 13.5631 10.1236V12.0016H16.3341L15.8911 14.8926H13.5631V21.8806C18.8176 21.0502 22.5022 16.2513 21.9476 10.9606C21.393 5.66993 16.7934 1.73949 11.4809 2.01673C6.16844 2.29398 2.00292 6.68186 2.00208 12.0016Z" fill="#2E3A59"/>
<path d="M43.625 22L41.583 20.2L40.432 19.13L39.215 18L39.715 19.759H28.947C27.8686 19.7551 26.9972 18.8784 27 17.8V4.957C26.9984 3.87939 27.8694 3.00386 28.947 3H41.678C42.7556 3.00386 43.6267 3.87939 43.625 4.957V22ZM39.1 13.508C38.6784 14.0735 38.0713 14.4728 37.385 14.636C37.667 14.996 38.007 15.403 38.01 15.407C39.1571 15.4312 40.2433 14.8917 40.917 13.963C40.8825 12.0377 40.4149 10.1449 39.549 8.425C38.7866 7.82677 37.8586 7.47763 36.891 7.425H36.88L36.747 7.577C37.6113 7.80915 38.4173 8.22 39.113 8.783C38.2278 8.29641 37.2565 7.98665 36.253 7.871C35.6152 7.80017 34.9713 7.80654 34.335 7.89C34.29 7.89089 34.2452 7.89557 34.201 7.904H34.173C33.4274 7.98985 32.6998 8.19232 32.017 8.504C31.675 8.661 31.465 8.775 31.456 8.779C31.447 8.783 31.456 8.779 31.456 8.772C32.1939 8.19164 33.0452 7.7723 33.955 7.541L33.855 7.427H33.849C32.8814 7.47976 31.9534 7.82888 31.191 8.427C30.3219 10.1457 29.8542 12.0393 29.823 13.965C30.4883 14.8999 31.576 15.4415 32.723 15.409C32.723 15.409 33.081 14.973 33.36 14.62C32.691 14.4519 32.1015 14.0558 31.693 13.5C31.7 13.505 31.799 13.572 31.959 13.66C31.9698 13.6726 31.983 13.6829 31.998 13.69C32.0107 13.6988 32.0241 13.7065 32.038 13.713C32.0538 13.7202 32.0689 13.7289 32.083 13.739C32.3061 13.862 32.5377 13.9689 32.776 14.059C33.2291 14.2384 33.6977 14.3756 34.176 14.469C34.5948 14.5479 35.0199 14.5881 35.446 14.589C35.8455 14.589 36.2442 14.5521 36.637 14.479C37.1101 14.3959 37.5721 14.259 38.014 14.071C38.3958 13.9242 38.76 13.7353 39.1 13.508ZM37.062 13.081C36.6269 13.1189 36.2132 12.8859 36.0201 12.4942C35.8271 12.1025 35.8942 11.6324 36.1893 11.3104C36.4844 10.9885 36.9469 10.8807 37.3539 11.039C37.7609 11.1973 38.029 11.5893 38.029 12.026C38.051 12.5839 37.6188 13.0551 37.061 13.081H37.062ZM33.594 13.081C33.0469 13.0333 32.627 12.5752 32.627 12.026C32.627 11.4768 33.0469 11.0187 33.594 10.971C33.8461 10.9718 34.087 11.0746 34.262 11.256C34.4606 11.4621 34.5686 11.7389 34.562 12.025C34.5852 12.5839 34.1518 13.0561 33.593 13.081H33.594Z" fill="#2E3A59"/>
<path d="M60.0069 19.0115H59.9869C59.9249 19.0115 53.7219 18.9995 52.1569 18.5745C51.2963 18.3427 50.6242 17.6702 50.3929 16.8095C50.1114 15.2219 49.9755 13.6119 49.9869 11.9995C49.9796 10.3845 50.1192 8.77222 50.4039 7.18251C50.6416 6.32102 51.3107 5.64546 52.1699 5.39951C53.6919 4.99951 59.7239 4.99951 59.9799 4.99951H60.0009C60.0639 4.99951 66.2829 5.01151 67.8319 5.43651C68.6906 5.66952 69.3613 6.34061 69.5939 7.19951C69.8842 8.79305 70.0205 10.4108 70.0009 12.0305C70.0079 13.6435 69.868 15.2539 69.5829 16.8415C69.3485 17.7012 68.676 18.3721 67.8159 18.6045C66.2959 19.0075 60.2629 19.0115 60.0069 19.0115ZM58.0069 9.00451L58.0019 15.0045L63.2139 12.0045L58.0069 9.00451Z" fill="#2E3A59"/>
<path d="M84.002 21.0409C81.542 21.0409 81.252 21.0279 80.292 20.9859C79.5433 20.9613 78.8044 20.8091 78.107 20.5359C76.9003 20.0663 75.9461 19.1117 75.477 17.9049C75.2143 17.2049 75.0726 16.4654 75.058 15.7179C75.002 14.7599 75.002 14.4459 75.002 12.0049C75.002 9.53788 75.015 9.24988 75.058 8.29488C75.0729 7.5484 75.2146 6.80989 75.477 6.11088C75.9456 4.90241 76.9013 3.94705 78.11 3.47888C78.8086 3.21509 79.5473 3.07303 80.294 3.05888C81.249 3.00488 81.563 3.00488 84.002 3.00488C86.482 3.00488 86.767 3.01788 87.712 3.05888C88.4605 3.07315 89.2012 3.21519 89.902 3.47888C91.1103 3.94759 92.0658 4.90276 92.535 6.11088C92.8021 6.82008 92.9445 7.57013 92.956 8.32788C93.012 9.28588 93.012 9.59888 93.012 12.0389C93.012 14.4789 92.998 14.7989 92.956 15.7459C92.9411 16.4941 92.799 17.2343 92.536 17.9349C92.0656 19.1426 91.11 20.0975 89.902 20.5669C89.2022 20.8291 88.4631 20.9707 87.716 20.9859C86.761 21.0409 86.448 21.0409 84.002 21.0409ZM83.968 4.58788C81.522 4.58788 81.268 4.59988 80.313 4.64288C79.7429 4.65043 79.1784 4.75562 78.644 4.95388C77.8547 5.25589 77.2302 5.87787 76.925 6.66588C76.7252 7.20618 76.62 7.77686 76.614 8.35288C76.561 9.32188 76.561 9.57588 76.561 12.0049C76.561 14.4049 76.57 14.6959 76.614 15.6589C76.6229 16.2291 76.728 16.7937 76.925 17.3289C77.2306 18.1164 77.855 18.7379 78.644 19.0399C79.1781 19.2395 79.7428 19.3447 80.313 19.3509C81.281 19.4069 81.536 19.4069 83.968 19.4069C86.421 19.4069 86.675 19.3949 87.622 19.3509C88.1924 19.3439 88.7573 19.2387 89.292 19.0399C90.0764 18.7353 90.6969 18.1152 91.002 17.3309C91.2014 16.7901 91.3065 16.2192 91.313 15.6429H91.324C91.367 14.6869 91.367 14.4319 91.367 11.9889C91.367 9.54588 91.356 9.28888 91.313 8.33388C91.304 7.76433 91.1988 7.20039 91.002 6.66588C90.6976 5.88046 90.077 5.25917 89.292 4.95388C88.7574 4.75462 88.1924 4.6494 87.622 4.64288C86.655 4.58788 86.402 4.58788 83.968 4.58788ZM84.002 16.6239C82.1319 16.6251 80.4454 15.4996 79.7288 13.7723C79.0123 12.0451 79.4069 10.0562 80.7286 8.73334C82.0503 7.41047 84.0388 7.01415 85.7667 7.72921C87.4946 8.44428 88.6215 10.1299 88.622 11.9999C88.6192 14.5509 86.553 16.6189 84.002 16.6239ZM84.002 8.99788C82.3451 8.99788 81.002 10.341 81.002 11.9979C81.002 13.6547 82.3451 14.9979 84.002 14.9979C85.6588 14.9979 87.002 13.6547 87.002 11.9979C86.9981 10.3426 85.6572 9.00173 84.002 8.99788ZM88.802 8.28489C88.2074 8.28267 87.7269 7.79947 87.728 7.20489C87.7291 6.61031 88.2114 6.12889 88.806 6.12889C89.4005 6.12889 89.8828 6.6103 89.884 7.20488C89.8842 7.49174 89.7702 7.76691 89.5672 7.96956C89.3642 8.17221 89.0888 8.28568 88.802 8.28489Z" fill="#2E3A59"/>
<path d="M109 21H105V9H109V11C109.853 9.91525 111.146 9.26857 112.525 9.237C115.006 9.25077 117.007 11.2694 117 13.75V21H113V14.25C112.84 13.1326 111.882 12.3036 110.753 12.306C110.259 12.3216 109.793 12.5378 109.462 12.9046C109.132 13.2715 108.965 13.7573 109 14.25V21ZM103 21H99V9H103V21ZM101 7C99.8954 7 99 6.10457 99 5C99 3.89543 99.8954 3 101 3C102.105 3 103 3.89543 103 5C103 5.53043 102.789 6.03914 102.414 6.41421C102.039 6.78929 101.53 7 101 7Z" fill="#2E3A59"/>
</svg>
